<svg id="Layer_1" xmlns="http://www.w3.org/2000/svg" width="208" height="150" viewBox="0 0 208 150"><defs><style>.cls-1{fill:#9595ae;stroke:#9595ae;stroke-miterlimit:0;stroke-width:0}</style></defs><path class="cls-1" d="M68.23 119.5h-8c-.55 0-1 .45-1 1s.45 1 1 1h8c.55 0 1-.45 1-1s-.45-1-1-1zM66.24 56.07c0-.55-.45-1-1-1h-8c-.55 0-1 .45-1 1s.45 1 1 1h8c.55 0 1-.45 1-1zM52.23 119.5h-.83c-2.13 0-4.1-.98-5.4-2.68-.33-.44-.96-.52-1.4-.19-.44.34-.52.96-.19 1.4 1.69 2.2 4.23 3.47 6.99 3.47h.83c.55 0 1-.45 1-1s-.45-1-1-1zM43.6 78.78c.55 0 1-.45 1-1v-8c0-.55-.45-1-1-1s-1 .45-1 1v8c0 .55.45 1 1 1zM43.6 94.78c.55 0 1-.45 1-1v-8c0-.55-.45-1-1-1s-1 .45-1 1v8c0 .55.45 1 1 1zM44.6 109.78v-8c0-.55-.45-1-1-1s-1 .45-1 1v8c0 .55.45 1 1 1s1-.45 1-1zM73.24 57.07h8c.55 0 1-.45 1-1s-.45-1-1-1h-8c-.55 0-1 .45-1 1s.45 1 1 1zM103.79 118.48c-1.07.66-2.3 1.01-3.56 1.01h-8c-.55 0-1 .45-1 1s.45 1 1 1h8c1.63 0 3.23-.46 4.62-1.32a1.003 1.003 0 0 0-1.06-1.7zM43.61 62.77c.09.02.18.04.27.04.44 0 .84-.29.96-.73a6.857 6.857 0 0 1 4.7-4.74 1.003 1.003 0 1 0-.55-1.93 8.868 8.868 0 0 0-6.08 6.13c-.15.53.17 1.08.7 1.23zM84.23 119.5h-8c-.55 0-1 .45-1 1s.45 1 1 1h8c.55 0 1-.45 1-1s-.45-1-1-1zM76.81 94.83v-5.5h5.5c.55 0 1-.45 1-1s-.45-1-1-1h-5.5v-5.5c0-.55-.45-1-1-1s-1 .45-1 1v5.5h-5.5c-.55 0-1 .45-1 1s.45 1 1 1h5.5v5.5c0 .55.45 1 1 1s1-.45 1-1zM85.24 37.34c.55 0 1-.45 1-1v-4.51c0-.55-.45-1-1-1s-1 .45-1 1v4.51c0 .55.45 1 1 1zM85.24 48.49c.55 0 1-.45 1-1v-4.51c0-.55-.45-1-1-1s-1 .45-1 1v4.51c0 .55.45 1 1 1zM88.56 40.65h4.51c.55 0 1-.45 1-1s-.45-1-1-1h-4.51c-.55 0-1 .45-1 1s.45 1 1 1zM77.41 40.65h4.51c.55 0 1-.45 1-1s-.45-1-1-1h-4.51c-.55 0-1 .45-1 1s.45 1 1 1zM156.57 95.29c-.55 0-1 .45-1 1v4.51c0 .55.45 1 1 1s1-.45 1-1v-4.51c0-.55-.45-1-1-1zM156.57 106.44c-.55 0-1 .45-1 1v4.51c0 .55.45 1 1 1s1-.45 1-1v-4.51c0-.55-.45-1-1-1zM164.4 103.12h-4.51c-.55 0-1 .45-1 1s.45 1 1 1h4.51c.55 0 1-.45 1-1s-.45-1-1-1zM153.25 103.12h-4.51c-.55 0-1 .45-1 1s.45 1 1 1h4.51c.55 0 1-.45 1-1s-.45-1-1-1zM163.98 69.28l-6.55-14.05a26.322 26.322 0 0 0-16.32-14.1L133 38.7h-.02s-.05 0-.08-.01c-.09-.02-.18-.02-.27-.02-.04 0-.07.01-.11.02-.08.02-.16.04-.23.08-.03.02-.07.03-.1.05-.1.06-.19.14-.27.23l-.83 1.07-8.44-1.56v-2.51a5.497 5.497 0 0 0 4.49-5.4c0-3.03-2.46-5.49-5.49-5.49s-5.49 2.46-5.49 5.49c0 .55.45 1 1 1s1-.45 1-1c0-1.92 1.57-3.49 3.49-3.49s3.49 1.57 3.49 3.49-1.57 3.49-3.49 3.49c-.55 0-1 .45-1 1v3.38l-8.84 1.3-.61-.78a.973.973 0 0 0-.27-.23c-.03-.02-.07-.03-.1-.05a.878.878 0 0 0-.23-.07c-.04 0-.08-.02-.12-.02-.09 0-.18 0-.27.02-.02 0-.05 0-.07.01h-.02l-7.97 2.41A26.367 26.367 0 0 0 85.9 55.19l-1.81 3.89c-.11.22-.22.44-.32.65L77.2 73.82a.986.986 0 0 0 .46 1.31l15.64 7.91-.05 22.3a.99.99 0 0 0 1 1h12.78v6.29c0 .55.45 1 1 1s1-.45 1-1V101.8h35.06c.55 0 1-.45 1-1V76.41l.89 1.9c.11.25.32.43.58.52.26.09.54.07.78-.05l16.19-8.19c.48-.24.68-.83.46-1.31zM121.64 40.4l8.09 1.5-8.08 10.5-8.42-10.77 8.4-1.23zm25.72 36.13L145 71.47a.99.99 0 0 0-1.12-.55c-.46.1-.78.51-.78.98v27.9h-42.87V71.9c0-.47-.33-.88-.78-.98-.46-.1-.92.13-1.12.55l-2.36 5.06-14.4-7.29 6.16-13.21c2.92-6.27 8.4-11.01 15.02-13.01l7.32-2.21 10.82 13.84c.19.24.48.38.79.38.31 0 .6-.15.79-.39l10.64-13.83 7.45 2.23a24.351 24.351 0 0 1 15.08 13.03l6.14 13.17-14.4 7.29z"/></svg>