<svg id="Layer_1" xmlns="http://www.w3.org/2000/svg" width="208" height="150" viewBox="0 0 208 150"><defs><style>.cls-1{fill:#9595ae;stroke:#9595ae;stroke-miterlimit:0;stroke-width:0}</style></defs><path class="cls-1" d="M80.95 34.61h2.37v5.37c0 .55.45 1 1 1s1-.45 1-1v-5.37h2.37c.55 0 1-.45 1-1s-.45-1-1-1h-2.37v-5.37c0-.55-.45-1-1-1s-1 .45-1 1v5.37h-2.37c-.55 0-1 .45-1 1s.45 1 1 1zM40.19 73.29h-2.37v-5.37c0-.55-.45-1-1-1s-1 .45-1 1v5.37h-2.37c-.55 0-1 .45-1 1s.45 1 1 1h2.37v5.37c0 .55.45 1 1 1s1-.45 1-1v-5.37h2.37c.55 0 1-.45 1-1s-.45-1-1-1zM151.98 104.35h-2.37v-5.37c0-.55-.45-1-1-1s-1 .45-1 1v5.37h-2.37c-.55 0-1 .45-1 1s.45 1 1 1h2.37v5.37c0 .55.45 1 1 1s1-.45 1-1v-5.37h2.37c.55 0 1-.45 1-1s-.45-1-1-1z"/><circle class="cls-1" cx="49.02" cy="29.4" r="1.12"/><path class="cls-1" d="M53.93 59.65c.62 0 1.12-.5 1.12-1.12s-.5-1.12-1.12-1.12-1.12.5-1.12 1.12.5 1.12 1.12 1.12z"/><circle class="cls-1" cx="173.43" cy="33.61" r="1.12"/><circle class="cls-1" cx="171.19" cy="105.35" r="1.12"/><circle class="cls-1" cx="160.08" cy="71.8" r="1.12"/><circle class="cls-1" cx="118.93" cy="117.41" r="1.12"/><circle class="cls-1" cx="117.81" cy="22.59" r="1.12"/><path class="cls-1" d="M152.94 41.31c-6.49-1.38-22.79-2.96-44.92 8.11a14 14 0 0 0-.67.34c-2.88 1.46-5.85 3.13-8.91 5.05-6.71 4.2-12.66 9.28-17.49 13.98-4.74-.4-12.38.17-19.51 6.06-8.4 6.94-10.7 15.97-11.33 20.25-.13.9.9 1.49 1.61.92 3.67-2.95 11.97-9.22 17.31-10.23.11.29.24.57.4.83l1.16 1.85c-.14.1-.28.19-.43.29-8.86 6.12-13.43 11.52-15.24 13.96-.2.27.14.6.41.4l6.8-4.92c3.35-2.42 6.99-4.42 10.82-5.96l6.42 10.24c.14.22.3.42.47.61-3.25 4.27-12.47 8.98-16.7 11-.82.39-.74 1.58.13 1.85 4.12 1.3 13.26 3.17 23.17-1.37 8.26-3.78 12.12-10.26 13.87-14.69 6.5-2.33 13.81-5.5 20.35-9.6 26.98-16.91 34.1-35.82 35.91-43.16.31-1.27.11-2.58-.59-3.68a4.741 4.741 0 0 0-3.06-2.13zm-33.33 47.28c-5.91 3.71-12.47 6.63-18.46 8.86.41-1.42.53-2.32.53-2.32l-.12.03c.29-.25.42-.65.31-1.04-.16-.53-.71-.83-1.24-.68l-20.71 6.12-2.26-3.6 14.43-15.51c.35-.38.36-.97 0-1.35a.983.983 0 0 0-1.13-.23c-1.72.38-9.09 2.26-18.71 8.48l-1.13-1.8a2.77 2.77 0 0 1 .17-3.18c3.91-4.91 14.48-17.27 28.2-25.88.86-.54 1.7-1.04 2.54-1.53-.77 1.61-.91 3.28-.26 4.76.78 1.78 2.56 2.96 5.01 3.32.51.07 1.03.11 1.57.11 1.87 0 3.89-.45 5.83-1.3 2.5-1.1 4.58-2.75 5.88-4.66 1.39-2.05 1.73-4.16.94-5.94a.997.997 0 0 0-1.32-.51c-.5.22-.73.81-.51 1.32.5 1.13.22 2.55-.77 4.01-1.09 1.6-2.87 3-5.03 3.95-2.16.95-4.39 1.32-6.31 1.04-1.74-.25-2.98-1.01-3.47-2.14-.97-2.2 1.07-5.35 4.53-7.32.34-.17.68-.36 1.02-.52l.24-.12c.02 0 .03-.02.05-.03 9.4-4.64 17.68-6.92 24.54-7.93l12.81 20.43c-5.21 7.68-13.62 16.65-27.19 25.15z"/></svg>