<svg id="Layer_1" xmlns="http://www.w3.org/2000/svg" width="208" height="150" viewBox="0 0 208 150"><defs><style>.cls-1{fill:#9595ae;stroke:#9595ae;stroke-miterlimit:0;stroke-width:0}</style></defs><path class="cls-1" d="M138.45 72.18c-.32 0-.63.01-.94.02V61.15l3.92 2.41c.16.1.34.15.52.15.08 0 .16 0 .23-.03a.98.98 0 0 0 .62-.45l2.96-4.8c.29-.47.14-1.09-.33-1.38l-50.1-30.84h-.02s-.01 0-.02-.01a.487.487 0 0 0-.11-.04c-.04-.02-.08-.04-.12-.05-.04-.01-.09-.01-.13-.02-.04 0-.09-.01-.13-.01s-.08 0-.13.01c-.04 0-.09 0-.13.02-.04.01-.08.03-.13.05-.03.01-.07.02-.1.04 0 0-.01 0-.02.01h-.02L44.15 57.05a.98.98 0 0 0-.45.62c-.06.26-.02.53.12.76l2.96 4.8a1 1 0 0 0 .85.48c.18 0 .36-.05.52-.15l3.92-2.41v51.51c0 .55.45 1 1 1h64.75c4.73 6.23 12.21 10.27 20.62 10.27 14.27 0 25.88-11.61 25.88-25.88s-11.61-25.88-25.88-25.88zm-58.69 39.48h-18.1V98.19h6.46v3.56c0 .55.45 1 1 1h3.18c.55 0 1-.45 1-1v-3.56h6.46v13.47zm0-15.47h-18.1V82.71h6.46v3.56c0 .55.45 1 1 1h3.18c.55 0 1-.45 1-1v-3.56h6.46v13.48zm0-15.48h-18.1V67.24h6.46v3.56c0 .55.45 1 1 1h3.18c.55 0 1-.45 1-1v-3.56h6.46v13.47zm20.1 30.95h-18.1V98.19h6.46v3.56c0 .55.45 1 1 1h3.18c.55 0 1-.45 1-1v-3.56h6.46v13.47zm0-15.47h-18.1V82.71h6.46v3.56c0 .55.45 1 1 1h3.18c.55 0 1-.45 1-1v-3.56h6.46v13.48zm-19.1-30.95h-20.1c-.55 0-1 .45-1 1v45.42h-5.57V59.92L94.8 34.87l40.71 25.05v12.43c-1.93.22-3.79.65-5.57 1.27v-7.39c0-.55-.45-1-1-1H80.76zm21.1 46.42V98.19h6.46v3.56c0 .55.45 1 1 1h3.18c.18 0 .33-.06.48-.14.58 3.27 1.78 6.33 3.47 9.06h-14.59zm36.59 10.27c-13.17 0-23.88-10.71-23.88-23.88s10.71-23.88 23.88-23.88 23.88 10.71 23.88 23.88-10.71 23.88-23.88 23.88z"/><path class="cls-1" d="M152.31 87.62a3 3 0 0 0-4.22.44l-10.73 13.23-7-7a3 3 0 0 0-4.24 0 3 3 0 0 0 0 4.24l9.35 9.35c.56.56 1.33.88 2.12.88h.16a2.97 2.97 0 0 0 2.17-1.11l12.82-15.81a3 3 0 0 0-.44-4.22z"/></svg>