<svg id="Layer_1" xmlns="http://www.w3.org/2000/svg" width="208" height="150" viewBox="0 0 208 150"><defs><style>.cls-1{fill:#9595ae;stroke:#9595ae;stroke-miterlimit:0;stroke-width:0}</style></defs><path class="cls-1" d="M154.74 85.84c.29.29.68.44 1.06.44s.77-.15 1.06-.44c.59-.59.59-1.54 0-2.12l-3.89-3.89c-.59-.58-1.54-.59-2.12 0a1.49 1.49 0 0 0 0 2.12l3.89 3.89zM162.58 89.44a1.49 1.49 0 0 0-2.12 0 1.49 1.49 0 0 0 0 2.12l3.89 3.89c.29.29.68.44 1.06.44s.77-.15 1.06-.44c.59-.59.59-1.54 0-2.12l-3.89-3.89zM164.36 79.82l-3.89 3.89a1.49 1.49 0 0 0 0 2.12c.29.29.68.44 1.06.44s.77-.15 1.06-.44l3.89-3.89c.59-.59.59-1.54 0-2.12-.59-.58-1.54-.59-2.12 0zM156.86 89.44a1.49 1.49 0 0 0-2.12 0l-3.89 3.89a1.49 1.49 0 0 0 0 2.12c.29.29.68.44 1.06.44s.77-.15 1.06-.44l3.89-3.89c.59-.59.59-1.54 0-2.12zM158.66 74.53c.83 0 1.5-.67 1.5-1.5v-5.85c0-.83-.67-1.5-1.5-1.5s-1.5.67-1.5 1.5v5.85c0 .83.67 1.5 1.5 1.5zM158.66 100.76c-.83 0-1.5.67-1.5 1.5v5.85c0 .83.67 1.5 1.5 1.5s1.5-.67 1.5-1.5v-5.85c0-.83-.67-1.5-1.5-1.5zM179.12 86.14h-5.85c-.83 0-1.5.67-1.5 1.5s.67 1.5 1.5 1.5h5.85c.83 0 1.5-.67 1.5-1.5s-.67-1.5-1.5-1.5zM169 78.81c.38 0 .77-.15 1.06-.44l4.13-4.13c.59-.59.59-1.54 0-2.12-.59-.58-1.54-.59-2.12 0l-4.13 4.13a1.49 1.49 0 0 0 0 2.12c.29.29.68.44 1.06.44zM170.06 96.92c-.59-.59-1.54-.59-2.12 0s-.59 1.54 0 2.12l4.13 4.13c.29.29.68.44 1.06.44s.77-.15 1.06-.44c.59-.59.59-1.54 0-2.12l-4.13-4.13zM147.26 78.37c.29.29.68.44 1.06.44s.77-.15 1.06-.44c.59-.59.59-1.54 0-2.12l-3.62-3.62V50.61c0-.55-.45-1-1-1H62.35c-.55 0-1 .45-1 1v4.14c-.06.24-.06.48 0 .71v5.9c-.33-.1-.69-.09-1.03.06-.76.33-1.1 1.22-.76 1.98l1.8 4.06v50.93c0 .55.45 1 1 1h82.41c.55 0 1-.45 1-1v-15.73l3.62-3.62c.59-.59.59-1.54 0-2.12s-1.54-.59-2.12 0l-1.5 1.57V76.87l1.5 1.5zM112.8 51.6h14.48v26.95c0 3.99-3.25 7.24-7.24 7.24s-7.24-3.25-7.24-7.24V51.6zm-32.96 0h14.48v26.95c0 3.99-3.25 7.24-7.24 7.24s-7.24-3.25-7.24-7.24V51.6zm31.44 65.79H95.85V94.13h15.43v23.26zm32.49 0h-30.49V93.13c0-.55-.45-1-1-1H94.85c-.55 0-1 .45-1 1v24.26H63.36v-34.9c1.4 2.56 4.12 4.3 7.24 4.3 3.53 0 6.54-2.23 7.71-5.35 1.22 3.68 4.69 6.35 8.77 6.35s7.56-2.67 8.77-6.35c1.17 3.12 4.18 5.35 7.71 5.35s6.54-2.23 7.71-5.35c1.22 3.68 4.69 6.35 8.77 6.35s7.56-2.67 8.77-6.35c1.17 3.12 4.18 5.35 7.71 5.35a8.24 8.24 0 0 0 7.24-4.3v34.9zM46.12 38.44a1.49 1.49 0 0 0 0 2.12l3.56 3.55c.29.29.68.44 1.06.44s.77-.15 1.06-.44c.59-.59.59-1.54 0-2.12l-3.56-3.56c-.59-.58-1.54-.59-2.12 0z"/><path class="cls-1" d="M60.58 52.89c.59-.59.59-1.54 0-2.12l-3.56-3.56c-.59-.58-1.54-.59-2.12 0s-.59 1.54 0 2.12l3.56 3.55c.29.29.68.44 1.06.44s.77-.15 1.06-.44zM54.9 44.11c.29.29.68.44 1.06.44s.77-.15 1.06-.44l3.56-3.55c.59-.59.59-1.54 0-2.12a1.49 1.49 0 0 0-2.12 0L54.9 42a1.49 1.49 0 0 0 0 2.12zM51.8 47.22a1.49 1.49 0 0 0-2.12 0l-3.56 3.56a1.49 1.49 0 0 0 0 2.12c.29.29.68.44 1.06.44s.77-.15 1.06-.44l3.56-3.55c.59-.59.59-1.54 0-2.12zM53.35 33.82c.83 0 1.5-.67 1.5-1.5v-5.34c0-.83-.67-1.5-1.5-1.5s-1.5.67-1.5 1.5v5.34c0 .83.67 1.5 1.5 1.5zM53.35 57.51c-.83 0-1.5.67-1.5 1.5v5.34c0 .83.67 1.5 1.5 1.5s1.5-.67 1.5-1.5v-5.34c0-.83-.67-1.5-1.5-1.5zM66.69 44.17c-.83 0-1.5.67-1.5 1.5s.67 1.5 1.5 1.5h5.34c.83 0 1.5-.67 1.5-1.5s-.67-1.5-1.5-1.5h-5.34zM34.67 44.17c-.83 0-1.5.67-1.5 1.5s.67 1.5 1.5 1.5h5.34c.83 0 1.5-.67 1.5-1.5s-.67-1.5-1.5-1.5h-5.34zM61.72 37.29c.29.29.68.44 1.06.44s.77-.15 1.06-.44l3.77-3.77c.59-.59.59-1.54 0-2.12s-1.54-.59-2.12 0l-3.77 3.77a1.49 1.49 0 0 0 0 2.12zM44.98 54.04a1.49 1.49 0 0 0-2.12 0l-3.77 3.77a1.49 1.49 0 0 0 0 2.12c.29.29.68.44 1.06.44s.77-.15 1.06-.44l3.77-3.77c.59-.59.59-1.54 0-2.12zM42.85 37.29c.29.29.68.44 1.06.44s.77-.15 1.06-.44c.59-.59.59-1.54 0-2.12L41.2 31.4c-.59-.59-1.54-.59-2.12 0s-.59 1.54 0 2.12l3.77 3.77zM70.48 39.58c.2 0 .41-.04.61-.13l6.85-3.03c.76-.33 1.1-1.22.76-1.98-.33-.76-1.22-1.1-1.98-.76l-6.85 3.03c-.76.34-1.1 1.22-.76 1.98.25.56.8.89 1.37.89zM35.62 51.87l-6.85 3.03c-.76.33-1.1 1.22-.76 1.98a1.502 1.502 0 0 0 1.98.76l6.85-3.03c.76-.33 1.1-1.22.76-1.98-.33-.76-1.22-1.1-1.98-.76zM44.4 29.14a1.502 1.502 0 0 0 1.98.76c.76-.34 1.1-1.22.76-1.98l-3.03-6.85c-.34-.76-1.22-1.1-1.98-.76-.76.33-1.1 1.22-.76 1.98l3.03 6.85zM35.34 40.31a1.496 1.496 0 0 0 1.94-.86c.3-.77-.09-1.64-.86-1.94l-6.99-2.7c-.77-.3-1.64.09-1.94.86-.3.77.09 1.64.86 1.94l6.99 2.7zM47.14 61.74c-.77-.3-1.64.09-1.94.86l-2.7 6.99a1.504 1.504 0 0 0 1.4 2.04c.6 0 1.17-.36 1.4-.96l2.7-6.99c.3-.77-.09-1.64-.86-1.94zM59.56 29.59a1.496 1.496 0 0 0 1.94-.86l2.7-6.99c.3-.77-.09-1.64-.86-1.94-.77-.3-1.64.09-1.94.86l-2.7 6.99c-.3.77.09 1.64.86 1.94z"/></svg>