<svg id="Layer_1" xmlns="http://www.w3.org/2000/svg" width="208" height="150" viewBox="0 0 208 150"><defs><style>.cls-1{fill:#9595ae;stroke:#9595ae;stroke-miterlimit:0;stroke-width:0}</style></defs><path class="cls-1" d="M110.71 49.19h-22.2c-.55 0-1 .45-1 1s.45 1 1 1h22.2c.55 0 1-.45 1-1s-.45-1-1-1zM88.5 57.9h14c.55 0 1-.45 1-1s-.45-1-1-1h-14c-.55 0-1 .45-1 1s.45 1 1 1zM127.2 51.19h9.8c.55 0 1-.45 1-1s-.45-1-1-1h-9.8c-.55 0-1 .45-1 1s.45 1 1 1zM127.2 57.9h9.8c.55 0 1-.45 1-1s-.45-1-1-1h-9.8c-.55 0-1 .45-1 1s.45 1 1 1zM109.98 78.56H88.5c-.55 0-1 .45-1 1s.45 1 1 1h21.48c.55 0 1-.45 1-1s-.45-1-1-1zM109.98 84.6H88.5c-.55 0-1 .45-1 1s.45 1 1 1h21.48c.55 0 1-.45 1-1s-.45-1-1-1zM109.98 90.65H88.5c-.55 0-1 .45-1 1s.45 1 1 1h21.48c.55 0 1-.45 1-1s-.45-1-1-1zM166.71 46.01c-1.54-1.41-3.27-2.46-4.85-2.96-1.84-.58-3.35-.36-4.24.61-1.7 1.85-.35 5.66 3.14 8.85 2.31 2.12 4.81 3.27 6.72 3.27.97 0 1.8-.3 2.37-.92 1.7-1.85.35-5.66-3.14-8.85zm1.66 7.5c-.67.73-3.44.12-6.27-2.47-2.83-2.59-3.68-5.3-3.01-6.03.32-.35 1.16-.37 2.17-.06 1.29.41 2.79 1.33 4.1 2.53 2.83 2.59 3.68 5.3 3.01 6.03z"/><path class="cls-1" d="M164.76 58.56c-.16-.08-.32-.14-.5-.13-.26.01-.51.12-.69.32-.66.72-3.44.12-6.27-2.47-2.83-2.59-3.68-5.3-3.01-6.03a.996.996 0 0 0-.06-1.41.984.984 0 0 0-.34-.2c-.12-.04-.25-.06-.38-.06-.26.01-.51.12-.69.32l-4.87 5.32v-8.19c0-4.45-3.62-8.07-8.07-8.07H72.99c-2.67 0-5.03 1.31-6.5 3.31H47.77c-3.52 0-6.38 2.86-6.38 6.38v39.59c0 .36.19.69.5.87a.993.993 0 0 0 1-.01l3.58-2.08 3.79 2.09c.3.17.67.17.97 0l.92-.52v11.17c0 4.45 3.62 8.07 8.07 8.07h18.85v4.21c0 .36.19.69.5.87.31.18.69.18 1 0l3.58-2.08 3.79 2.09c.3.17.67.16.97 0l3.69-2.08 3.69 2.08c.3.17.68.17.98 0l3.69-2.08 3.69 2.08c.3.17.68.17.98 0l3.69-2.08 3.69 2.08c.31.17.68.17.98 0l3.69-2.08 3.7 2.08c.15.09.32.13.49.13s.34-.04.49-.13l3.67-2.08 3.69 2.08c.3.17.68.17.98 0l3.69-2.08 3.69 2.08c.3.17.68.17.98 0l3.69-2.08 3.69 2.08c.31.17.69.17 1 0s.5-.51.5-.86V78.81l17.11-18.68a.996.996 0 0 0-.06-1.41c-.07-.06-.15-.09-.22-.13zM52.15 85.29l-1.41.8-3.8-2.09c-.15-.08-.32-.12-.48-.12s-.35.05-.5.14l-2.57 1.49V47.65c0-2.42 1.97-4.38 4.38-4.38 1.16 0 2.21.46 2.99 1.21 1.09 1.21 1.39 3.12 1.39 4.84V85.3zM64.92 46v52.76c0 1.8-.45 5.95-4.53 6.06-.06 0-.11.01-.16.01-3.35 0-6.07-2.72-6.07-6.07V49.31c0-2.6-.64-4.66-1.8-6.04h13.07c-.26.7-.42 1.45-.47 2.22-.01.17-.03.33-.03.52zm14.15 58.83H64.99c1.24-1.39 1.93-3.47 1.93-6.04V46.03c0-3.35 2.72-6.07 6.07-6.07s6.07 2.72 6.07 6.07v58.8zm66.87 4.49l-2.69-1.52c-.3-.17-.68-.17-.98 0l-3.69 2.08-3.69-2.08c-.3-.17-.68-.17-.98 0l-3.69 2.08-3.69-2.08c-.3-.17-.68-.17-.98 0l-3.67 2.08-3.7-2.08c-.31-.17-.68-.17-.98 0l-3.69 2.08-3.69-2.08c-.31-.17-.68-.17-.98 0l-3.69 2.08-3.69-2.08c-.3-.17-.68-.17-.98 0l-3.69 2.08-3.69-2.08c-.3-.17-.68-.17-.98 0l-3.69 2.09-3.8-2.09c-.15-.08-.32-.12-.48-.12s-.35.04-.5.13l-2.57 1.49V46c0-.12-.01-.24-.02-.36 0-.15 0-.31-.03-.46-.02-.21-.06-.41-.09-.62l-.03-.18c-.05-.22-.11-.44-.17-.66l-.03-.11a5.4 5.4 0 0 0-.25-.67c0-.02-.02-.05-.03-.07-.1-.23-.2-.44-.32-.66l-.02-.04c-.12-.22-.25-.43-.39-.64v-.02c-.4-.57-.85-1.1-1.37-1.56h61.54c3.35 0 6.07 2.72 6.07 6.07V56.4l-20.51 22.4c-.33.36-.55.81-.65 1.3v.02l-2.15 11.98c-.02.12-.01.23 0 .34v.04c0 .01.01.02.01.04.02.1.06.2.11.29a.7.7 0 0 0 .15.19c.01.01.03.01.04.02.06.06.14.1.21.14.03.02.06.04.09.05.11.04.23.07.36.07h.12l22.21-2.73v18.77zM126 84.63c.64 1.02 1.5 2.05 2.57 3.03.92.84 1.91 1.54 2.89 2.08l-6.61 1.29 1.15-6.4zm10.19 4.03c-.32.35-1.15.37-2.17.06-1.29-.41-2.79-1.33-4.1-2.53-2.83-2.59-3.68-5.3-3.02-6.03l25.4-27.74c.48 1.69 1.74 3.6 3.64 5.34 1.9 1.74 3.92 2.82 5.65 3.15l-25.41 27.75z"/></svg>