<svg id="Layer_1" xmlns="http://www.w3.org/2000/svg" width="208" height="150" viewBox="0 0 208 150"><defs><style>.cls-1{fill:#9595ae;stroke:#9595ae;stroke-miterlimit:0;stroke-width:0}</style></defs><path class="cls-1" d="M164.76 77.28a.987.987 0 0 0-.58-.5l-9.25-3.11c-.25-.08-.53-.07-.76.05s-.42.33-.5.58l-.27.81c-1.37-1.62-3.62-4.78-4.28-8.77-.49-2.98-.41-5.67-.34-7.83.09-2.93.16-5.24-1.23-6.69-.87-.9-2.15-1.33-4.04-1.35-1.45-.02-2.7.53-3.71 1.62-1.37 1.48-2.11 3.84-2.49 6.23-1.84-2.91-5.03-8.07-7.27-12.17-2.96-5.45-4.84-7.7-6.92-8.29-1.09-.31-2.18-.13-3.34.54-1.19.69-1.78 1.6-1.97 2.67-2.09.39-3.52 1.25-4.22 2.56-.24.45-.38.93-.45 1.42-1.58.4-2.72 1.17-3.34 2.34-1.25 2.34-.25 5.59.9 8.46.1.26.22.55.34.86-1.06.25-1.92.81-2.46 1.69-1.37 2.21-.57 5.71.34 8.26.3.83.58 1.65.87 2.53 1.35 3.98 3.03 8.94 8.5 20.82 5.24 11.37 14 15.17 15.64 15.8l6.66 7.43-2.17 6.45c-.18.52.11 1.09.63 1.27l9.25 3.11c.11.04.21.05.32.05.42 0 .81-.26.95-.68l15.25-45.41a1 1 0 0 0-.05-.76zm-23.44 33.8l-6.07-6.77c-.11-.13-.26-.22-.42-.28-.09-.03-9.42-3.33-14.73-14.83-5.43-11.78-7.09-16.69-8.42-20.63-.3-.89-.58-1.72-.88-2.56-1.07-2.98-1.26-5.36-.53-6.54.31-.5.79-.77 1.5-.87 2.04 5.24 5.22 13.61 5.26 13.71a1 1 0 0 0 .93.65c.12 0 .24-.02.35-.07.52-.2.78-.77.58-1.29-.05-.12-4.66-12.27-6.34-16.48-.85-2.12-1.87-5.13-.99-6.77.31-.57.87-.98 1.68-1.25.27 1.34.86 2.64 1.33 3.66l.19.41c1.16 2.57 7.24 17.33 7.3 17.48.16.39.53.62.92.62.13 0 .26-.02.38-.08a1 1 0 0 0 .54-1.31c-.25-.61-6.16-14.94-7.33-17.54l-.19-.42c-.71-1.56-1.79-3.92-1.03-5.34.37-.69 1.22-1.17 2.49-1.46.3 1.73 1.15 3.69 2.02 5.7.32.73.65 1.48.96 2.24.98 2.39 5.71 13.46 5.75 13.57a.998.998 0 1 0 1.84-.78c-.05-.11-4.77-11.16-5.74-13.54-.32-.78-.65-1.54-.98-2.28-1.82-4.17-2.84-6.78-.92-7.88.69-.4 1.25-.51 1.8-.35 1.44.41 3.14 2.59 5.71 7.31 3.08 5.66 7.95 13.27 8.69 14.42-.15 2.72.03 4.93.05 5.12a.998.998 0 1 0 1.99-.17c-.23-2.7-.28-10.29 2.26-13.02.62-.67 1.35-1 2.22-.98 1.3.01 2.15.25 2.62.74.81.84.75 2.78.67 5.24-.07 2.25-.15 5.04.37 8.21.89 5.4 4.26 9.32 5.52 10.62l-11.35 33.79zM101.27 57.82c-2.16-.88-3.89-.5-5.37.63.67-2.1 1.44-4.64 2.11-7.1.22-.81.45-1.58.66-2.33 1.34-4.56 2.6-8.86-2.65-10.44-1.88-.56-3.28-.3-4.38.44-.1-.09-.21-.16-.34-.21-2.05-.72-3.58-.78-4.83-.18-.49.24-.92.57-1.31.99-.06-.05-.12-.11-.2-.15-1.5-.69-2.77-.78-3.9-.3-1.19.51-2.04 1.58-2.8 3.08-.9-.34-1.76-.38-2.57-.09-2.38.87-3.71 4.24-5.4 8.5-.76 1.94-1.56 3.94-2.52 5.89-5.17 10.47-11.13 16.99-13.44 19.29l-.47-1.39a.495.495 0 0 0-.63-.31l-9.25 3.1a.504.504 0 0 0-.32.63l15.25 45.41c.07.21.26.34.47.34.05 0 .11 0 .16-.03l9.25-3.1a.504.504 0 0 0 .32-.63l-1.71-5.08 6.97-8.42c1.98-.79 14.3-6.04 19.23-15.81 3.38-6.69 4.8-11.43 5.74-14.56.5-1.67.87-2.88 1.31-3.71l.28-.52c1.37-2.52 4.22-7.77 2.98-11.27-.44-1.24-1.33-2.14-2.63-2.67zm-2.1 12.98l-.29.54c-.54 1-.92 2.29-1.46 4.08-.92 3.07-2.31 7.7-5.61 14.23-4.9 9.72-18.27 14.89-18.41 14.94-.16.06-.3.16-.42.3l-6.34 7.67-11.62-34.6c1.68-1.56 8.55-8.4 14.53-20.51 1-2.02 1.84-4.16 2.58-6.04 1.38-3.49 2.68-6.79 4.22-7.36.22-.08.56-.15 1.08.03-.4 1-.79 2.11-1.22 3.33l-.07.2c-1.97 5.64-6.02 14.74-6.06 14.83-.23.5 0 1.1.5 1.32a.992.992 0 0 0 1.32-.5c.04-.09 4.13-9.27 6.13-14.99l.07-.2c1.25-3.59 2.24-6.43 3.71-7.06.56-.24 1.28-.16 2.18.24-.76 1.41-1.43 3.3-2.27 5.7-.34.97-.71 2.03-1.13 3.17-1.55 4.24-5.14 14.01-5.14 14.01l1.88.69s3.59-9.77 5.14-14.01c.42-1.15.79-2.21 1.14-3.19 1.37-3.91 2.28-6.5 3.7-7.18.65-.31 1.57-.26 2.8.11-1.03 1.48-1.69 3.44-2.27 5.22-.25.76-.5 1.52-.77 2.24-1.69 4.46-6.43 17.72-6.47 17.85-.19.52.08 1.09.61 1.28.11.04.22.06.34.06.41 0 .8-.25.94-.66.05-.13 4.77-13.37 6.46-17.81.28-.75.54-1.53.8-2.32 1.55-4.7 2.62-6.82 5.68-5.9 3.09.93 2.85 2.71 1.3 7.96-.22.76-.45 1.55-.68 2.37-1.54 5.72-3.68 11.83-3.7 11.9 0 .03 0 .06-.01.08a77.7 77.7 0 0 0-1.51 2.6c-1.7 2.99-3.45 6.08-5.87 8.28a.997.997 0 1 0 1.34 1.48c2.66-2.41 4.58-5.79 6.27-8.77 2.93-5.16 4.74-8.02 7.92-6.72.77.31 1.26.8 1.51 1.49.95 2.65-1.72 7.55-2.85 9.64z"/><path class="cls-1" d="M136.64 71.99c-.26.11-6.4 2.9-3.59 17.12.09.48.51.81.98.81.06 0 .13 0 .19-.02.54-.11.89-.63.79-1.17-2.44-12.37 2.32-14.84 2.43-14.9.5-.22.73-.8.51-1.31a.995.995 0 0 0-1.31-.53zM72.7 33.38c.2.28.5.42.82.42a.996.996 0 0 0 .81-1.57l-4.18-5.94c-.32-.45-.94-.56-1.39-.24s-.56.94-.24 1.39l4.18 5.94zM67.86 38.82c.17.12.37.18.57.18.32 0 .63-.15.82-.43a.988.988 0 0 0-.25-1.39l-5.96-4.16a.995.995 0 0 0-1.39.25.988.988 0 0 0 .25 1.39l5.96 4.16zM59.17 43.94l7.11 1.51c.07.02.14.02.21.02.46 0 .88-.32.98-.79a1.01 1.01 0 0 0-.77-1.19l-7.11-1.51a1.01 1.01 0 0 0-1.19.77c-.11.54.23 1.07.77 1.19zM127.64 33.81c.31 0 .62-.15.82-.42l4.18-5.94c.32-.45.21-1.08-.24-1.39s-1.08-.21-1.39.24l-4.18 5.94a.994.994 0 0 0 .81 1.57zM131.91 38.57c.19.28.5.43.82.43.2 0 .4-.06.57-.18l5.96-4.16c.45-.32.56-.94.25-1.39-.32-.45-.94-.56-1.39-.25l-5.96 4.16c-.45.32-.56.94-.25 1.39zM133.7 44.68c.1.47.52.79.98.79.07 0 .14 0 .21-.02l7.11-1.51c.54-.11.88-.65.77-1.19a.998.998 0 0 0-1.19-.77l-7.11 1.51c-.54.11-.88.65-.77 1.19z"/></svg>